<svg xmlns="http://www.w3.org/2000/svg" width="300" height="67" viewBox="0 0 300 67">
  <defs>
    <style>
      .cls-1, .cls-2 {
        fill: #fff;
      }

      .cls-1 {
        fill-rule: evenodd;
      }
    </style>
  </defs>
  <path id="startmix" class="cls-1" d="M102.507,50.12a17.316,17.316,0,0,0,7.9,1.7c7,0,10.6-3.35,10.6-7.9-0.05-3.6-2-5.95-6.65-7.55-3-1.05-3.95-1.65-3.95-2.8,0-1.25,1.05-2,2.9-2a12,12,0,0,1,5.3,1.4l1.35-5.25a16.4,16.4,0,0,0-6.9-1.4c-6.05,0-9.951,3.45-9.951,8-0.05,2.9,1.9,5.65,6.951,7.35,2.85,0.95,3.6,1.55,3.6,2.8s-0.95,2.05-3.25,2.05a14.861,14.861,0,0,1-6.551-1.85Zm24.15-28.552v5.3h-3.25v5.6h3.25v10c0,3.45.7,5.8,2.1,7.251a7.905,7.905,0,0,0,5.7,2.1,14.906,14.906,0,0,0,4.95-.65l-0.05-5.75a12.412,12.412,0,0,1-2.25.2c-2.3,0-3-1.35-3-4.3V32.469h5.45v-5.6h-5.45v-7ZM166.709,51.32a37.888,37.888,0,0,1-.35-5.95v-8.5c0-5.75-2.6-10.551-10.751-10.551a20.186,20.186,0,0,0-9.5,2.15l1.4,4.9a13.757,13.757,0,0,1,6.751-1.85c3.75,0,4.45,1.85,4.45,3.15v0.35c-8.65-.05-14.351,3-14.351,9.35a7.5,7.5,0,0,0,7.9,7.5,8.808,8.808,0,0,0,7-3h0.15l0.45,2.45h6.851Zm-7.751-8.9a5.451,5.451,0,0,1-.15,1.3,4.152,4.152,0,0,1-3.95,2.8,2.73,2.73,0,0,1-3-2.9c0-2.95,3.1-3.9,7.1-3.85v2.65Zm13.4,8.9h7.6v-12.4a8.963,8.963,0,0,1,.15-1.7c0.5-2.35,2.4-3.85,5.2-3.85a10.9,10.9,0,0,1,2.05.2V26.418a7.833,7.833,0,0,0-1.6-.1,7.182,7.182,0,0,0-6.6,5.05h-0.2l-0.25-4.5h-6.551c0.1,2.1.2,4.45,0.2,8.051v16.4Zm22.05-29.752v5.3h-3.25v5.6h3.25v10c0,3.45.7,5.8,2.1,7.251a7.905,7.905,0,0,0,5.7,2.1,14.906,14.906,0,0,0,4.95-.65l-0.05-5.75a12.412,12.412,0,0,1-2.25.2c-2.3,0-3-1.35-3-4.3V32.469h5.45v-5.6h-5.45v-7Zm17.3,29.752h7.4V37.069a5.04,5.04,0,0,1,.3-1.9,3.869,3.869,0,0,1,3.55-2.75c2.4,0,3.5,2.1,3.5,5.2v13.7h7.4v-14.3a6.359,6.359,0,0,1,.3-1.95,3.72,3.72,0,0,1,3.5-2.65c2.45,0,3.6,2.05,3.6,5.6v13.3h7.4v-14.4c0-7.3-3.551-10.6-8.251-10.6a8.821,8.821,0,0,0-4.65,1.2,10.942,10.942,0,0,0-3.15,2.95h-0.1a6.93,6.93,0,0,0-6.7-4.15,8.479,8.479,0,0,0-7.4,3.85h-0.15l-0.35-3.3h-6.4c0.1,2.15.2,4.75,0.2,7.8V51.32Zm49.6,0V26.868h-7.6V51.32h7.6Zm-3.8-35.1a3.716,3.716,0,0,0-4,3.85,3.717,3.717,0,0,0,3.951,3.8A3.833,3.833,0,1,0,257.508,16.218Zm9.2,10.651,8.1,12-8.3,12.451h8.351l2.3-4.4c0.6-1.2,1.25-2.4,1.85-3.7h0.15c0.6,1.25,1.2,2.5,1.9,3.7l2.45,4.4h8.6l-8.151-12.8,8.051-11.651h-8.251l-2.15,3.95c-0.65,1.2-1.25,2.45-1.9,3.75h-0.1c-0.65-1.15-1.3-2.4-2-3.65l-2.4-4.05h-8.5Z"/>
  <ellipse class="cls-2" cx="13.5" cy="24" rx="5.5" ry="5"/>
  <ellipse id="Ellipse_1_copy" data-name="Ellipse 1 copy" class="cls-2" cx="26.5" cy="24" rx="5.5" ry="5"/>
  <ellipse id="Ellipse_1_copy_2" data-name="Ellipse 1 copy 2" class="cls-2" cx="32.5" cy="34" rx="5.5" ry="5"/>
  <path id="Ellipse_1_copy_3" data-name="Ellipse 1 copy 3" class="cls-1" d="M27.708,41.934a4.359,4.359,0,1,1,0,8.679A4.359,4.359,0,1,1,27.708,41.934Z"/>
  <circle id="Ellipse_1_copy_5" data-name="Ellipse 1 copy 5" class="cls-2" cx="8" cy="35.016" r="3.938"/>
  <path id="Ellipse_1_copy_4" data-name="Ellipse 1 copy 4" class="cls-1" d="M13.74,41.937a4.386,4.386,0,1,1,0,8.733A4.386,4.386,0,1,1,13.74,41.937Z"/>
  <path id="Elephant_1" data-name="Elephant 1" class="cls-1" d="M20.386,27c-0.966-.021-1.3.721-2.1,0.906h-0.75l-1.83.265-0.824-.044a3.523,3.523,0,0,0-1.208.8,3.358,3.358,0,0,0-1.611,3.734c0.049,0.364.1,0.767,0.146,1.083,0.1,0.642-.27,1-0.165,1.524l0.073,0.044,0.128-.088c0.224-.974.132-2.428,0.293-3.491l0.018,0.044a11.813,11.813,0,0,1-.018,1.7,1.989,1.989,0,0,1,.11.928,4.141,4.141,0,0,0-.165,2.254c0.226,0.571,1.5.231,1.739-.088-0.015-.528-0.426-0.521-0.476-0.994a3.583,3.583,0,0,1,.714-1.547,5.481,5.481,0,0,0,.055,2.011,1.443,1.443,0,0,0,1.647-.133c0.17-.3-0.391-0.574-0.421-0.906a3.537,3.537,0,0,0,.11-1.1,11.508,11.508,0,0,1,1.409-.84L17.4,33.628l-0.238.95-0.018,1.016a2.244,2.244,0,0,0-.146.994c0.273,0.231,1.454.7,1.61,0.177S18.2,36.128,18.3,35.595l0.348-.928,0.11-.84h0.018a8.2,8.2,0,0,0,.659,1.635,7.038,7.038,0,0,1,0,.95c0.261,0.23,1.42.37,1.592-.044,0.111-.5-0.4-0.625-0.512-0.95l-0.073-.729-0.274-.884-0.073-.751-0.256-.84a2.307,2.307,0,0,1,.494-1.679c0.12,0.366,1.009.551,1.3,0.8a1.534,1.534,0,0,1,.22.751l0.366,1.348,0.2,0.486a0.767,0.767,0,0,1-.238.707H22.161a0.9,0.9,0,0,0-.055-0.508,0.644,0.644,0,0,0-.714.309l0.018,0.155a0.273,0.273,0,0,0,.329.088c0.061,0.788,1.006.555,1.19,0.066,0.216-.573-0.145-1.2-0.055-1.9a5.584,5.584,0,0,0-.348-2.607l-0.256-1.3a4.471,4.471,0,0,0-1.537-1.856Z"/>
</svg>
